<svg width="192" height="192" viewBox="0 0 192 192" fill="none" xmlns="http://www.w3.org/2000/svg">
<g id="Icon">
<g id="Border" opacity="0.06">
<rect id="Shape" width="192" height="192" rx="16" fill="#1565D8"/>
</g>
<g id="iconspace_Price tag b_25px">
<path id="path" opacity="0.3" fill-rule="evenodd" clip-rule="evenodd" d="M110.328 43.7951L100.74 52.2014L113.253 62.6293C115.989 64.9092 117.571 68.2865 117.571 71.8479V127.2C117.571 133.985 114.442 140.04 109.549 144H125.597C134.509 144 141.684 136.452 141.684 127.2V71.7749C141.684 69.7012 140.79 67.7282 139.23 66.3611L113.492 43.7951C112.587 43.0012 111.233 43.0012 110.328 43.7951ZM88.8836 79.1997C88.8836 83.1762 85.6601 86.3997 81.6836 86.3997C77.7072 86.3997 74.4836 83.1762 74.4836 79.1997C74.4836 75.2233 77.7072 71.9997 81.6836 71.9997C85.6601 71.9997 88.8836 75.2233 88.8836 79.1997Z" fill="#1565D8"/>
<path id="path_2" fill-rule="evenodd" clip-rule="evenodd" d="M50.3712 71.8479C50.3712 69.7111 51.3203 67.6847 52.9619 66.3167L80.0348 43.756C80.9248 43.0143 82.2176 43.0143 83.1077 43.756L110.181 66.3167C111.822 67.6847 112.771 69.7111 112.771 71.8479V127.2C112.771 136.478 105.25 144 95.9712 144H67.1712C57.8928 144 50.3712 136.478 50.3712 127.2V71.8479ZM69.6837 79.1997C69.6837 85.8271 75.0563 91.1997 81.6837 91.1997C88.3111 91.1997 93.6837 85.8271 93.6837 79.1997C93.6837 72.5723 88.3111 67.1997 81.6837 67.1997C75.0563 67.1997 69.6837 72.5723 69.6837 79.1997Z" fill="#1565D8"/>
</g>
</g>
</svg>
