<svg width="192" height="192" viewBox="0 0 192 192" fill="none" xmlns="http://www.w3.org/2000/svg">
<g id="Icon">
<g id="Border" opacity="0.06">
<rect id="Shape" width="192" height="192" rx="16" fill="#1565D8"/>
</g>
<g id="Icon_Like">
<path id="Path" fill-rule="evenodd" clip-rule="evenodd" d="M76.6008 78.9405C81.8119 71.4701 85.0647 62.8981 86.3696 53.1936C86.4939 52.2692 87.1426 51.5005 88.033 51.2225C97.0071 48.4209 102.109 52.8729 102.025 63.0243C102.008 64.9948 101.918 66.7462 101.726 69.425C101.298 75.4084 101.332 77.0412 101.996 78.14C102.634 79.1962 104.707 79.5568 109.608 78.618C111.155 78.3218 112.706 77.9861 114.424 77.5828C115.183 77.4048 120.647 76.0599 122.044 75.7557C124.708 75.1754 126.619 74.9298 128.3 75.0338C132.854 75.3155 135.271 78.2732 135.688 83.9398C136.423 93.919 134.151 113.964 131.885 121.347C129.568 128.891 125.529 131.739 115.832 131.911C109.598 132.022 100.009 132.022 87.022 131.911C83.7067 131.833 80.7022 131.186 78.0297 129.975C78.7799 128.408 79.2 126.653 79.2 124.799V86.3994C79.2 83.5804 78.228 80.9885 76.6008 78.9405Z" fill="#1565D8"/>
<path id="Path_2" opacity="0.3" fill-rule="evenodd" clip-rule="evenodd" d="M62.4 79.1997C58.4235 79.1997 55.2 82.4233 55.2 86.3997V124.8C55.2 128.776 58.4235 132 62.4 132H67.2C71.1764 132 74.4 128.776 74.4 124.8V86.3997C74.4 82.4233 71.1764 79.1997 67.2 79.1997H62.4Z" fill="#1565D8"/>
</g>
</g>
</svg>
