<svg width="192" height="192" viewBox="0 0 192 192" fill="none" xmlns="http://www.w3.org/2000/svg">
<g id="Icon">
<g id="Border" opacity="0.06">
<rect id="Shape" width="192" height="192" rx="16" fill="#1565D8"/>
</g>
<g id="Icon_Refund">
<path id="path" fill-rule="evenodd" clip-rule="evenodd" d="M99.7878 105.247C102.773 98.7606 100.022 93.4165 92.421 90.1066L79.8287 84.9072C75.7492 83.2229 71.0748 83.917 67.6598 86.7142L56.0793 96.1999L55.7425 99.5772L55.2 127.2V132H69.2112L97.7864 140.119C101.391 141.143 105.267 140.423 108.264 138.17C127.092 124.018 139.672 114.462 141.577 112.69C146.196 108.396 148.014 103.621 144.723 98.9146C142.063 95.1102 137.577 94.7043 132.017 97.2215L104.975 110.975L97.3709 108.557C98.3513 107.711 99.1598 106.611 99.7878 105.247Z" fill="#1565D8"/>
<path id="path_2" opacity="0.3" fill-rule="evenodd" clip-rule="evenodd" d="M124.575 55.2001H117.6V52.8001C117.6 51.4747 116.526 50.4001 115.2 50.4001C113.875 50.4001 112.8 51.4747 112.8 52.8001V55.2001H110.467C106.491 55.2001 103.267 58.4237 103.267 62.4001V64.8038C103.267 68.7802 106.491 72.0038 110.467 72.0038H120C121.326 72.0038 122.4 73.0783 122.4 74.4038V76.8001C122.4 78.1256 121.326 79.2001 120 79.2001H108.059C107.96 77.9994 106.973 77.0386 105.74 77.0011C104.415 76.9608 103.308 78.0021 103.268 79.327L103.201 81.5272C103.16 82.8806 104.246 84.0001 105.6 84.0001H112.8V86.3581C112.8 87.6836 113.875 88.7581 115.2 88.7581C116.526 88.7581 117.6 87.6836 117.6 86.3581V84.0001H120C123.977 84.0001 127.2 80.7766 127.2 76.8001V74.4038C127.2 70.4273 123.977 67.2038 120 67.2038H110.467C109.142 67.2038 108.067 66.1293 108.067 64.8038V62.4001C108.067 61.0747 109.142 60.0001 110.467 60.0001H122.246C122.507 61.0439 123.451 61.8171 124.575 61.8171C125.9 61.8171 126.975 60.7426 126.975 59.4171V57.6001C126.975 56.2747 125.9 55.2001 124.575 55.2001ZM52.8001 90.0001H54.0001V135.6H52.8001C50.8118 135.6 49.2001 137.212 49.2001 139.2C49.2001 141.188 50.8118 142.8 52.8001 142.8H57.6001C59.5883 142.8 61.2001 141.188 61.2001 139.2V86.4001C61.2001 84.4119 59.5883 82.8001 57.6001 82.8001H52.8001C50.8118 82.8001 49.2001 84.4119 49.2001 86.4001C49.2001 88.3884 50.8118 90.0001 52.8001 90.0001Z" fill="#1565D8"/>
</g>
</g>
</svg>
