<svg width="192" height="192" viewBox="0 0 192 192" fill="none" xmlns="http://www.w3.org/2000/svg">
<g id="Icon">
<g id="Border" opacity="0.06">
<rect id="Shape" width="192" height="192" rx="16" fill="#1565D8"/>
</g>
<g id="Icon_Amenities">
<path id="Path" fill-rule="evenodd" clip-rule="evenodd" d="M146.4 88.7997H45.5999V64.7997C45.5999 59.4978 49.8979 55.1997 55.1999 55.1997H136.8C142.102 55.1997 146.4 59.4978 146.4 64.7997V88.7997ZM86.3999 74.3997H105.644C106.969 74.3997 108.044 73.3252 108.044 71.9997C108.044 70.6742 106.969 69.5997 105.644 69.5997H86.3999C85.0744 69.5997 83.9999 70.6742 83.9999 71.9997C83.9999 73.3252 85.0744 74.3997 86.3999 74.3997Z" fill="#1565D8"/>
<path id="Path_2" fill-rule="evenodd" clip-rule="evenodd" d="M146.4 93.5999V98.3999C146.4 103.702 142.102 108 136.8 108H55.1999C49.8979 108 45.5999 103.702 45.5999 98.3999V93.5999H146.4Z" fill="#1565D8"/>
<path id="Path_3" opacity="0.3" fill-rule="evenodd" clip-rule="evenodd" d="M78.8235 119.317C79.6805 117.79 81.7774 117.165 83.5072 117.922C85.2369 118.678 85.9444 120.529 85.0874 122.056L80.4694 130.283C79.6124 131.81 77.5155 132.434 75.7858 131.678C74.0561 130.921 73.3486 129.07 74.2056 127.544L78.8235 119.317ZM60.1821 119.316C61.0391 117.789 63.136 117.165 64.8658 117.921C66.5955 118.678 67.303 120.529 66.446 122.056L61.828 130.284C60.9711 131.81 58.8741 132.435 57.1444 131.678C55.4147 130.922 54.7072 129.071 55.5642 127.544L60.1821 119.316ZM106.839 122.076C105.97 120.554 106.662 118.699 108.385 117.931C110.109 117.164 112.211 117.775 113.08 119.296L117.783 127.524C118.653 129.045 117.961 130.901 116.237 131.668C114.514 132.436 112.412 131.825 111.542 130.304L106.839 122.076ZM92.4831 120.674C92.4831 118.976 94.048 117.601 95.9784 117.601C97.9087 117.601 99.4736 118.976 99.4736 120.674V128.926C99.4736 130.623 97.9087 131.999 95.9784 131.999C94.048 131.999 92.4831 130.623 92.4831 128.926V120.674ZM125.481 122.076C124.611 120.554 125.303 118.699 127.027 117.931C128.75 117.164 130.852 117.775 131.722 119.296L136.425 127.524C137.294 129.045 136.602 130.901 134.879 131.668C133.155 132.436 131.053 131.825 130.184 130.304L125.481 122.076Z" fill="#1565D8"/>
</g>
</g>
</svg>
