<svg width="192" height="192" viewBox="0 0 192 192" fill="none" xmlns="http://www.w3.org/2000/svg">
<g id="Icon">
<g id="Border" opacity="0.06">
<rect id="Shape" width="192" height="192" rx="16" fill="#1565D8"/>
</g>
<g id="Icon_Best Offers">
<path id="path" fill-rule="evenodd" clip-rule="evenodd" d="M93.6 103.763H88.8265C87.5011 103.763 86.4265 104.838 86.4265 106.163C86.4265 107.489 87.5011 108.563 88.8265 108.563H103.216C104.541 108.563 105.616 107.489 105.616 106.163C105.616 104.838 104.541 103.763 103.216 103.763H98.4V73.2C98.4 71.0994 95.8924 70.0124 94.3593 71.4484L88.3593 77.0684C87.392 77.9746 87.3423 79.4933 88.2484 80.4607C89.1546 81.4281 90.6733 81.4778 91.6407 80.5717L93.6 78.7364V103.763ZM96 127.8C74.7923 127.8 57.6 110.608 57.6 89.4C57.6 68.1923 74.7923 51 96 51C117.208 51 134.4 68.1923 134.4 89.4C134.4 110.608 117.208 127.8 96 127.8Z" fill="#1565D8"/>
<path id="path_2" opacity="0.3" fill-rule="evenodd" clip-rule="evenodd" d="M139.82 131.366L130.559 115.326C123.722 124.424 113.377 130.735 101.532 132.249L110.721 148.166C111.538 149.58 113.498 149.784 114.588 148.566L124.17 137.86L138.233 134.915C139.832 134.58 140.636 132.78 139.82 131.366ZM82.0153 148.093L91.1176 132.327C79.2287 130.99 68.8001 124.827 61.8364 115.844L52.9169 131.293C52.1001 132.707 52.9045 134.507 54.5033 134.842L68.5662 137.787L78.1485 148.493C79.2379 149.71 81.1986 149.507 82.0153 148.093Z" fill="#1565D8"/>
</g>
</g>
</svg>
