<svg width="192" height="192" viewBox="0 0 192 192" fill="none" xmlns="http://www.w3.org/2000/svg">
<g id="Icon">
<g id="Border" opacity="0.06">
<rect id="Shape" width="192" height="192" rx="16" fill="#1565D8"/>
</g>
<g id="Icon_Protection">
<path id="Path" fill-rule="evenodd" clip-rule="evenodd" d="M140.015 61.3433L96.8151 45.7433C96.2883 45.553 95.7116 45.553 95.1848 45.7433L51.9848 61.3433C51.0337 61.6867 50.4 62.5894 50.4 63.6006V96.0006C50.4 121.443 65.595 138.327 95.378 146.319C95.7908 146.429 96.2257 146.428 96.6378 146.314C126.411 138.107 141.6 121.23 141.6 96.0006V63.6006C141.6 62.5894 140.966 61.6867 140.015 61.3433ZM79.4313 91.8025C80.3915 90.8888 81.9106 90.9265 82.8243 91.8867L92.5331 102.09L112.921 79.9739C113.82 78.9993 115.338 78.9376 116.312 79.836C117.287 80.7344 117.349 82.2528 116.45 83.2273L94.3255 107.227C93.3852 108.247 91.7785 108.26 90.8223 107.255L79.347 95.1955C78.4333 94.2353 78.471 92.7162 79.4313 91.8025Z" fill="#1565D8"/>
</g>
</g>
</svg>
