<svg width="64" height="64" viewBox="0 0 64 64" fill="none" xmlns="http://www.w3.org/2000/svg">
<g opacity="0.06">
<rect width="64" height="64" rx="16" fill="#1565D8"/>
</g>
<path fill-rule="evenodd" clip-rule="evenodd" d="M48.8 37.0742C48.1508 36.272 47.3328 35.6121 46.4 35.1485V32.0001C46.4 23.8263 40.1738 17.6485 32 17.6485C23.8262 17.6485 17.6 23.8263 17.6 32.0001V35.1485C16.6672 35.6121 15.8491 36.272 15.2 37.0742V32.0001C15.2 22.5008 22.5007 15.2485 32 15.2485C41.4993 15.2485 48.8 22.5008 48.8 32.0001V37.0742ZM20.0708 36.0471C20.0243 36.291 20 36.5427 20 36.8001V46.4001C20 46.6575 20.0243 46.9092 20.0708 47.153C17.3225 46.7957 15.2 44.4457 15.2 41.6001C15.2 38.7544 17.3225 36.4045 20.0708 36.0471ZM44 46.4001C44 46.6575 43.9757 46.9092 43.9292 47.153C46.6775 46.7957 48.8 44.4457 48.8 41.6001C48.8 38.7544 46.6775 36.4045 43.9292 36.0471C43.9757 36.291 44 36.5427 44 36.8001V46.4001Z" fill="#1565D8"/>
<path opacity="0.3" fill-rule="evenodd" clip-rule="evenodd" d="M25.6 34.3999H24C22.6745 34.3999 21.6 35.4744 21.6 36.7999V46.3999C21.6 47.7254 22.6745 48.7999 24 48.7999H25.6C26.9255 48.7999 28 47.7254 28 46.3999V36.7999C28 35.4744 26.9255 34.3999 25.6 34.3999ZM40 34.3999H38.4C37.0745 34.3999 36 35.4744 36 36.7999V46.3999C36 47.7254 37.0745 48.7999 38.4 48.7999H40C41.3255 48.7999 42.4 47.7254 42.4 46.3999V36.7999C42.4 35.4744 41.3255 34.3999 40 34.3999Z" fill="#1565D8"/>
</svg>
