<svg width="192" height="192" viewBox="0 0 192 192" fill="none" xmlns="http://www.w3.org/2000/svg">
<g id="Icon">
<g id="Border" opacity="0.06">
<rect id="Shape" width="192" height="192" rx="16" fill="#1565D8"/>
</g>
<g id="Icon_Top">
<path id="Path" fill-rule="evenodd" clip-rule="evenodd" d="M124.8 117.6C126.271 117.6 127.639 118.041 128.779 118.798L136.733 86.9819C137.251 84.9076 135.003 83.2418 133.169 84.3419L111.392 97.4085L98.1508 70.9265C97.2673 69.1596 94.7466 69.1571 93.8597 70.9224L80.5521 97.4081L58.8416 84.3435C57.0083 83.2402 54.7569 84.9062 55.2758 86.9819L63.2287 118.793C64.367 118.039 65.7323 117.6 67.2001 117.6H124.8ZM64.8001 124.8C64.8001 123.474 65.8746 122.4 67.2001 122.4H124.8C126.126 122.4 127.2 123.474 127.2 124.8V139.2C127.2 140.525 126.126 141.6 124.8 141.6H67.2001C65.8746 141.6 64.8001 140.525 64.8001 139.2V124.8Z" fill="#1565D8"/>
<path id="Path_2" opacity="0.3" fill-rule="evenodd" clip-rule="evenodd" d="M96 74.4001C89.3726 74.4001 84 69.0276 84 62.4001C84 55.7727 89.3726 50.4001 96 50.4001C102.627 50.4001 108 55.7727 108 62.4001C108 69.0276 102.627 74.4001 96 74.4001ZM55.2 88.8001C49.8981 88.8001 45.6 84.5021 45.6 79.2001C45.6 73.8982 49.8981 69.6001 55.2 69.6001C60.502 69.6001 64.8 73.8982 64.8 79.2001C64.8 84.5021 60.502 88.8001 55.2 88.8001ZM127.2 79.2001C127.2 84.5021 131.498 88.8001 136.8 88.8001C142.102 88.8001 146.4 84.5021 146.4 79.2001C146.4 73.8982 142.102 69.6001 136.8 69.6001C131.498 69.6001 127.2 73.8982 127.2 79.2001Z" fill="#1565D8"/>
</g>
</g>
</svg>
